<?xml version="1.0" standalone="no"?><svg xmlns:xlink="http://www.w3.org/1999/xlink" xmlns="http://www.w3.org/2000/svg" opacity="0.1" viewBox="0 0 1000 571.4244833068362" preserveAspectRatio="xMaxYMax slice"><g transform="scale(0.794912559618442)"><rect x="0" y="0" width="1258" height="718.8571428571429" fill="#ffffff"/><rect x="0" y="0" width="89.86" height="89.86" fill="#fafafa"/><polygon points="0,0 89.86,89.86 0,89.86" fill="#2b2b2b"/><rect x="89.86" y="0" width="89.86" height="89.86" fill="#8b8b8b"/><polygon points="89.86,0 179.72,89.86 89.86,89.86" fill="#909090"/><rect x="179.71428571428572" y="0" width="89.85714285714286" height="89.85714285714286" fill="#ffffff"/><rect x="179.71" y="0" width="44.93" height="44.93" fill="#3e3e3e"/><polygon points="179.71,0 224.64000000000001,0 224.64000000000001,44.93" fill="#a4a4a4"/><rect x="224.64" y="0" width="44.93" height="44.93" fill="#9b9b9b"/><polygon points="224.64,0 269.57,0 269.57,44.93" fill="#050505"/><rect x="179.71" y="44.93" width="44.93" height="44.93" fill="#6c6c6c"/><polygon points="224.64000000000001,44.93 224.64000000000001,89.86 179.71,89.86" fill="#f6f6f6"/><rect x="224.64" y="44.93" width="44.93" height="44.93" fill="#868686"/><polygon points="224.64,44.93 269.57,44.93 269.57,89.86" fill="#fdfdfd"/><rect x="269.57" y="0" width="89.86" height="89.86" fill="#5c5c5c"/><polygon points="269.57,0 359.43,0 269.57,89.86" fill="#a4a4a4"/><rect x="359.43" y="0" width="89.86" height="89.86" fill="#2a2a2a"/><polygon points="359.43,0 449.29,0 449.29,89.86" fill="#a4a4a4"/><rect x="449.29" y="0" width="89.86" height="89.86" fill="#aeaeae"/><polygon points="539.15,0 539.15,89.86 449.29,89.86" fill="#b4b4b4"/><rect x="539.1428571428571" y="0" width="89.85714285714286" height="89.85714285714286" fill="#ffffff"/><rect x="539.14" y="0" width="44.93" height="44.93" fill="#bfbfbf"/><polygon points="539.14,0 584.0699999999999,0 539.14,44.93" fill="#7c7c7c"/><rect x="584.07" y="0" width="44.93" height="44.93" fill="#050505"/><polygon points="629,0 629,44.93 584.07,44.93" fill="#f8f8f8"/><rect x="539.14" y="44.93" width="44.93" height="44.93" fill="#d2d2d2"/><polygon points="539.14,44.93 584.0699999999999,44.93 539.14,89.86" fill="#e5e5e5"/><rect x="584.07" y="44.93" width="44.93" height="44.93" fill="#1d1d1d"/><polygon points="629,44.93 629,89.86 584.07,89.86" fill="#757575"/><rect x="629" y="0" width="89.86" height="89.86" fill="#0c0c0c"/><polygon points="629,0 718.86,0 629,89.86" fill="#6e6e6e"/><rect x="718.8571428571429" y="0" width="89.85714285714286" height="89.85714285714286" fill="#ffffff"/><rect x="718.86" y="0" width="44.93" height="44.93" fill="#141414"/><polygon points="763.79,0 763.79,44.93 718.86,44.93" fill="#d7d7d7"/><rect x="763.79" y="0" width="44.93" height="44.93" fill="#585858"/><polygon points="763.79,0 808.7199999999999,44.93 763.79,44.93" fill="#f3f3f3"/><rect x="718.86" y="44.93" width="44.93" height="44.93" fill="#666666"/><polygon points="718.86,44.93 763.79,44.93 763.79,89.86" fill="#3a3a3a"/><rect x="763.79" y="44.93" width="44.93" height="44.93" fill="#d6d6d6"/><polygon points="763.79,44.93 808.7199999999999,44.93 763.79,89.86" fill="#cecece"/><rect x="808.7142857142858" y="0" width="89.85714285714286" height="89.85714285714286" fill="#ffffff"/><rect x="808.71" y="0" width="44.93" height="44.93" fill="#808080"/><polygon points="853.64,0 853.64,44.93 808.71,44.93" fill="#4c4c4c"/><rect x="853.64" y="0" width="44.93" height="44.93" fill="#1f1f1f"/><polygon points="898.5699999999999,0 898.5699999999999,44.93 853.64,44.93" fill="#747474"/><rect x="808.71" y="44.93" width="44.93" height="44.93" fill="#666666"/><polygon points="853.64,44.93 853.64,89.86 808.71,89.86" fill="#1e1e1e"/><rect x="853.64" y="44.93" width="44.93" height="44.93" fill="#494949"/><polygon points="853.64,44.93 898.5699999999999,44.93 898.5699999999999,89.86" fill="#fefefe"/><rect x="898.57" y="0" width="89.86" height="89.86" fill="#757575"/><polygon points="898.57,0 988.4300000000001,0 988.4300000000001,89.86" fill="#e1e1e1"/><rect x="988.43" y="0" width="89.86" height="89.86" fill="#fdfdfd"/><polygon points="1078.29,0 1078.29,89.86 988.43,89.86" fill="#f6f6f6"/><rect x="1078.29" y="0" width="89.86" height="89.86" fill="#282828"/><polygon points="1078.29,0 1168.1499999999999,0 1078.29,89.86" fill="#2d2d2d"/><rect x="1168.142857142857" y="0" width="89.85714285714286" height="89.85714285714286" fill="#ffffff"/><rect x="1168.14" y="0" width="44.93" height="44.93" fill="#080808"/><polygon points="1213.0700000000002,0 1213.0700000000002,44.93 1168.14,44.93" fill="#989898"/><rect x="1213.07" y="0" width="44.93" height="44.93" fill="#f1f1f1"/><polygon points="1213.07,0 1258,44.93 1213.07,44.93" fill="#333333"/><rect x="1168.14" y="44.93" width="44.93" height="44.93" fill="#444444"/><polygon points="1168.14,44.93 1213.0700000000002,44.93 1213.0700000000002,89.86" fill="#ededed"/><rect x="1213.07" y="44.93" width="44.93" height="44.93" fill="#ededed"/><polygon points="1213.07,44.93 1258,44.93 1213.07,89.86" fill="#8a8a8a"/><rect x="0" y="89.86" width="89.86" height="89.86" fill="#818181"/><polygon points="0,89.86 89.86,89.86 89.86,179.72" fill="#505050"/><rect x="89.86" y="89.86" width="89.86" height="89.86" fill="#bbbbbb"/><polygon points="89.86,89.86 179.72,89.86 89.86,179.72" fill="#2b2b2b"/><rect x="179.71" y="89.86" width="89.86" height="89.86" fill="#6c6c6c"/><polygon points="179.71,89.86 269.57,89.86 179.71,179.72" fill="#828282"/><rect x="269.57" y="89.86" width="89.86" height="89.86" fill="#515151"/><polygon points="269.57,89.86 359.43,89.86 359.43,179.72" fill="#393939"/><rect x="359.42857142857144" y="89.85714285714286" width="89.85714285714286" height="89.85714285714286" fill="#ffffff"/><rect x="359.43" y="89.86" width="44.93" height="44.93" fill="#7a7a7a"/><polygon points="359.43,89.86 404.36,89.86 404.36,134.79" fill="#cacaca"/><rect x="404.36" y="89.86" width="44.93" height="44.93" fill="#bdbdbd"/><polygon points="449.29,89.86 449.29,134.79 404.36,134.79" fill="#1b1b1b"/><rect x="359.43" y="134.79" width="44.93" height="44.93" fill="#767676"/><polygon points="359.43,134.79 404.36,134.79 359.43,179.72" fill="#b7b7b7"/><rect x="404.36" y="134.79" width="44.93" height="44.93" fill="#c3c3c3"/><polygon points="449.29,134.79 449.29,179.72 404.36,179.72" fill="#7d7d7d"/><rect x="449.28571428571433" y="89.85714285714286" width="89.85714285714286" height="89.85714285714286" fill="#ffffff"/><rect x="449.29" y="89.86" width="44.93" height="44.93" fill="#9c9c9c"/><polygon points="449.29,89.86 494.22,134.79 449.29,134.79" fill="#0b0b0b"/><rect x="494.21" y="89.86" width="44.93" height="44.93" fill="#585858"/><polygon points="494.21,89.86 539.14,134.79 494.21,134.79" fill="#616161"/><rect x="449.29" y="134.79" width="44.93" height="44.93" fill="#252525"/><polygon points="449.29,134.79 494.22,179.72 449.29,179.72" fill="#7f7f7f"/><rect x="494.21" y="134.79" width="44.93" height="44.93" fill="#535353"/><polygon points="494.21,134.79 539.14,179.72 494.21,179.72" fill="#111111"/><rect x="539.1428571428571" y="89.85714285714286" width="89.85714285714286" height="89.85714285714286" fill="#ffffff"/><rect x="539.14" y="89.86" width="44.93" height="44.93" fill="#fefefe"/><polygon points="584.0699999999999,89.86 584.0699999999999,134.79 539.14,134.79" fill="#444444"/><rect x="584.07" y="89.86" width="44.93" height="44.93" fill="#ababab"/><polygon points="584.07,89.86 629,89.86 584.07,134.79" fill="#f2f2f2"/><rect x="539.14" y="134.79" width="44.93" height="44.93" fill="#cacaca"/><polygon points="539.14,134.79 584.0699999999999,134.79 539.14,179.72" fill="#252525"/><rect x="584.07" y="134.79" width="44.93" height="44.93" fill="#e7e7e7"/><polygon points="629,134.79 629,179.72 584.07,179.72" fill="#040404"/><rect x="629" y="89.85714285714286" width="89.85714285714286" height="89.85714285714286" fill="#ffffff"/><rect x="629" y="89.86" width="44.93" height="44.93" fill="#1e1e1e"/><polygon points="629,89.86 673.93,89.86 629,134.79" fill="#9b9b9b"/><rect x="673.93" y="89.86" width="44.93" height="44.93" fill="#7c7c7c"/><polygon points="673.93,89.86 718.8599999999999,89.86 673.93,134.79" fill="#999999"/><rect x="629" y="134.79" width="44.93" height="44.93" fill="#646464"/><polygon points="629,134.79 673.93,134.79 629,179.72" fill="#9a9a9a"/><rect x="673.93" y="134.79" width="44.93" height="44.93" fill="#424242"/><polygon points="718.8599999999999,134.79 718.8599999999999,179.72 673.93,179.72" fill="#6d6d6d"/><rect x="718.8571428571429" y="89.85714285714286" width="89.85714285714286" height="89.85714285714286" fill="#ffffff"/><rect x="718.86" y="89.86" width="44.93" height="44.93" fill="#b4b4b4"/><polygon points="718.86,89.86 763.79,134.79 718.86,134.79" fill="#f7f7f7"/><rect x="763.79" y="89.86" width="44.93" height="44.93" fill="#c8c8c8"/><polygon points="763.79,89.86 808.7199999999999,89.86 808.7199999999999,134.79" fill="#fbfbfb"/><rect x="718.86" y="134.79" width="44.93" height="44.93" fill="#868686"/><polygon points="718.86,134.79 763.79,134.79 718.86,179.72" fill="#c0c0c0"/><rect x="763.79" y="134.79" width="44.93" height="44.93" fill="#4c4c4c"/><polygon points="763.79,134.79 808.7199999999999,134.79 808.7199999999999,179.72" fill="#fafafa"/><rect x="808.7142857142858" y="89.85714285714286" width="89.85714285714286" height="89.85714285714286" fill="#ffffff"/><rect x="808.71" y="89.86" width="44.93" height="44.93" fill="#797979"/><polygon points="808.71,89.86 853.64,89.86 808.71,134.79" fill="#bababa"/><rect x="853.64" y="89.86" width="44.93" height="44.93" fill="#e2e2e2"/><polygon points="853.64,89.86 898.5699999999999,89.86 853.64,134.79" fill="#878787"/><rect x="808.71" y="134.79" width="44.93" height="44.93" fill="#c4c4c4"/><polygon points="808.71,134.79 853.64,134.79 853.64,179.72" fill="#f6f6f6"/><rect x="853.64" y="134.79" width="44.93" height="44.93" fill="#b6b6b6"/><polygon points="853.64,134.79 898.5699999999999,179.72 853.64,179.72" fill="#f4f4f4"/><rect x="898.5714285714287" y="89.85714285714286" width="89.85714285714286" height="89.85714285714286" fill="#ffffff"/><rect x="898.57" y="89.86" width="44.93" height="44.93" fill="#929292"/><polygon points="898.57,89.86 943.5,134.79 898.57,134.79" fill="#ededed"/><rect x="943.5" y="89.86" width="44.93" height="44.93" fill="#4e4e4e"/><polygon points="943.5,89.86 988.43,89.86 988.43,134.79" fill="#e7e7e7"/><rect x="898.57" y="134.79" width="44.93" height="44.93" fill="#828282"/><polygon points="943.5,134.79 943.5,179.72 898.57,179.72" fill="#dcdcdc"/><rect x="943.5" y="134.79" width="44.93" height="44.93" fill="#636363"/><polygon points="988.43,134.79 988.43,179.72 943.5,179.72" fill="#424242"/><rect x="988.43" y="89.86" width="89.86" height="89.86" fill="#b4b4b4"/><polygon points="988.43,89.86 1078.29,89.86 1078.29,179.72" fill="#fdfdfd"/><rect x="1078.29" y="89.86" width="89.86" height="89.86" fill="#858585"/><polygon points="1168.1499999999999,89.86 1168.1499999999999,179.72 1078.29,179.72" fill="#2f2f2f"/><rect x="1168.14" y="89.86" width="89.86" height="89.86" fill="#727272"/><polygon points="1168.14,89.86 1258,89.86 1258,179.72" fill="#3d3d3d"/><rect x="0" y="179.71428571428572" width="89.85714285714286" height="89.85714285714286" fill="#ffffff"/><rect x="0" y="179.71" width="44.93" height="44.93" fill="#5e5e5e"/><polygon points="0,179.71 44.93,179.71 0,224.64000000000001" fill="#f6f6f6"/><rect x="44.93" y="179.71" width="44.93" height="44.93" fill="#272727"/><polygon points="89.86,179.71 89.86,224.64000000000001 44.93,224.64000000000001" fill="#959595"/><rect x="0" y="224.64" width="44.93" height="44.93" fill="#6c6c6c"/><polygon points="0,224.64 44.93,224.64 0,269.57" fill="#6e6e6e"/><rect x="44.93" y="224.64" width="44.93" height="44.93" fill="#020202"/><polygon points="44.93,224.64 89.86,224.64 89.86,269.57" fill="#e3e3e3"/><rect x="89.86" y="179.71" width="89.86" height="89.86" fill="#141414"/><polygon points="89.86,179.71 179.72,179.71 89.86,269.57" fill="#7b7b7b"/><rect x="179.71428571428572" y="179.71428571428572" width="89.85714285714286" height="89.85714285714286" fill="#ffffff"/><rect x="179.71" y="179.71" width="44.93" height="44.93" fill="#777777"/><polygon points="179.71,179.71 224.64000000000001,224.64000000000001 179.71,224.64000000000001" fill="#373737"/><rect x="224.64" y="179.71" width="44.93" height="44.93" fill="#434343"/><polygon points="224.64,179.71 269.57,179.71 269.57,224.64000000000001" fill="#3d3d3d"/><rect x="179.71" y="224.64" width="44.93" height="44.93" fill="#e3e3e3"/><polygon points="179.71,224.64 224.64000000000001,224.64 224.64000000000001,269.57" fill="#9b9b9b"/><rect x="224.64" y="224.64" width="44.93" height="44.93" fill="#090909"/><polygon points="269.57,224.64 269.57,269.57 224.64,269.57" fill="#5f5f5f"/><rect x="269.57142857142856" y="179.71428571428572" width="89.85714285714286" height="89.85714285714286" fill="#ffffff"/><rect x="269.57" y="179.71" width="44.93" height="44.93" fill="#858585"/><polygon points="269.57,179.71 314.5,179.71 269.57,224.64000000000001" fill="#8a8a8a"/><rect x="314.5" y="179.71" width="44.93" height="44.93" fill="#7f7f7f"/><polygon points="359.43,179.71 359.43,224.64000000000001 314.5,224.64000000000001" fill="#3d3d3d"/><rect x="269.57" y="224.64" width="44.93" height="44.93" fill="#8a8a8a"/><polygon points="314.5,224.64 314.5,269.57 269.57,269.57" fill="#ababab"/><rect x="314.5" y="224.64" width="44.93" height="44.93" fill="#cbcbcb"/><polygon points="314.5,224.64 359.43,224.64 314.5,269.57" fill="#464646"/><rect x="359.42857142857144" y="179.71428571428572" width="89.85714285714286" height="89.85714285714286" fill="#ffffff"/><rect x="359.43" y="179.71" width="44.93" height="44.93" fill="#444444"/><polygon points="359.43,179.71 404.36,179.71 404.36,224.64000000000001" fill="#aeaeae"/><rect x="404.36" y="179.71" width="44.93" height="44.93" fill="#8a8a8a"/><polygon points="404.36,179.71 449.29,179.71 449.29,224.64000000000001" fill="#363636"/><rect x="359.43" y="224.64" width="44.93" height="44.93" fill="#848484"/><polygon points="359.43,224.64 404.36,224.64 359.43,269.57" fill="#b7b7b7"/><rect x="404.36" y="224.64" width="44.93" height="44.93" fill="#0c0c0c"/><polygon points="449.29,224.64 449.29,269.57 404.36,269.57" fill="#afafaf"/><rect x="449.28571428571433" y="179.71428571428572" width="89.85714285714286" height="89.85714285714286" fill="#ffffff"/><rect x="449.29" y="179.71" width="44.93" height="44.93" fill="#5f5f5f"/><polygon points="449.29,179.71 494.22,179.71 449.29,224.64000000000001" fill="#858585"/><rect x="494.21" y="179.71" width="44.93" height="44.93" fill="#1a1a1a"/><polygon points="494.21,179.71 539.14,224.64000000000001 494.21,224.64000000000001" fill="#eaeaea"/><rect x="449.29" y="224.64" width="44.93" height="44.93" fill="#171717"/><polygon points="449.29,224.64 494.22,269.57 449.29,269.57" fill="#4d4d4d"/><rect x="494.21" y="224.64" width="44.93" height="44.93" fill="#242424"/><polygon points="494.21,224.64 539.14,224.64 539.14,269.57" fill="#1c1c1c"/><rect x="539.14" y="179.71" width="89.86" height="89.86" fill="#9b9b9b"/><polygon points="539.14,179.71 629,269.57 539.14,269.57" fill="#5a5a5a"/><rect x="629" y="179.71" width="89.86" height="89.86" fill="#121212"/><polygon points="629,179.71 718.86,269.57 629,269.57" fill="#656565"/><rect x="718.8571428571429" y="179.71428571428572" width="89.85714285714286" height="89.85714285714286" fill="#ffffff"/><rect x="718.86" y="179.71" width="44.93" height="44.93" fill="#4e4e4e"/><polygon points="718.86,179.71 763.79,179.71 718.86,224.64000000000001" fill="#aeaeae"/><rect x="763.79" y="179.71" width="44.93" height="44.93" fill="#fafafa"/><polygon points="808.7199999999999,179.71 808.7199999999999,224.64000000000001 763.79,224.64000000000001" fill="#747474"/><rect x="718.86" y="224.64" width="44.93" height="44.93" fill="#f8f8f8"/><polygon points="718.86,224.64 763.79,224.64 718.86,269.57" fill="#0f0f0f"/><rect x="763.79" y="224.64" width="44.93" height="44.93" fill="#404040"/><polygon points="763.79,224.64 808.7199999999999,224.64 808.7199999999999,269.57" fill="#efefef"/><rect x="808.7142857142858" y="179.71428571428572" width="89.85714285714286" height="89.85714285714286" fill="#ffffff"/><rect x="808.71" y="179.71" width="44.93" height="44.93" fill="#424242"/><polygon points="808.71,179.71 853.64,179.71 808.71,224.64000000000001" fill="#a2a2a2"/><rect x="853.64" y="179.71" width="44.93" height="44.93" fill="#393939"/><polygon points="898.5699999999999,179.71 898.5699999999999,224.64000000000001 853.64,224.64000000000001" fill="#535353"/><rect x="808.71" y="224.64" width="44.93" height="44.93" fill="#7a7a7a"/><polygon points="853.64,224.64 853.64,269.57 808.71,269.57" fill="#c7c7c7"/><rect x="853.64" y="224.64" width="44.93" height="44.93" fill="#646464"/><polygon points="898.5699999999999,224.64 898.5699999999999,269.57 853.64,269.57" fill="#282828"/><rect x="898.57" y="179.71" width="89.86" height="89.86" fill="#bebebe"/><polygon points="898.57,179.71 988.4300000000001,179.71 988.4300000000001,269.57" fill="#f8f8f8"/><rect x="988.43" y="179.71" width="89.86" height="89.86" fill="#424242"/><polygon points="988.43,179.71 1078.29,179.71 1078.29,269.57" fill="#a1a1a1"/><rect x="1078.29" y="179.71" width="89.86" height="89.86" fill="#dedede"/><polygon points="1078.29,179.71 1168.1499999999999,179.71 1168.1499999999999,269.57" fill="#979797"/><rect x="1168.142857142857" y="179.71428571428572" width="89.85714285714286" height="89.85714285714286" fill="#ffffff"/><rect x="1168.14" y="179.71" width="44.93" height="44.93" fill="#333333"/><polygon points="1168.14,179.71 1213.0700000000002,224.64000000000001 1168.14,224.64000000000001" fill="#5a5a5a"/><rect x="1213.07" y="179.71" width="44.93" height="44.93" fill="#e8e8e8"/><polygon points="1213.07,179.71 1258,179.71 1258,224.64000000000001" fill="#686868"/><rect x="1168.14" y="224.64" width="44.93" height="44.93" fill="#fbfbfb"/><polygon points="1168.14,224.64 1213.0700000000002,224.64 1168.14,269.57" fill="#fbfbfb"/><rect x="1213.07" y="224.64" width="44.93" height="44.93" fill="#c6c6c6"/><polygon points="1213.07,224.64 1258,224.64 1213.07,269.57" fill="#a7a7a7"/><rect x="0" y="269.57142857142856" width="89.85714285714286" height="89.85714285714286" fill="#ffffff"/><rect x="0" y="269.57" width="44.93" height="44.93" fill="#575757"/><polygon points="44.93,269.57 44.93,314.5 0,314.5" fill="#d4d4d4"/><rect x="44.93" y="269.57" width="44.93" height="44.93" fill="#b6b6b6"/><polygon points="44.93,269.57 89.86,269.57 89.86,314.5" fill="#2d2d2d"/><rect x="0" y="314.5" width="44.93" height="44.93" fill="#e3e3e3"/><polygon points="0,314.5 44.93,314.5 0,359.43" fill="#3c3c3c"/><rect x="44.93" y="314.5" width="44.93" height="44.93" fill="#d8d8d8"/><polygon points="89.86,314.5 89.86,359.43 44.93,359.43" fill="#6c6c6c"/><rect x="89.85714285714286" y="269.57142857142856" width="89.85714285714286" height="89.85714285714286" fill="#ffffff"/><rect x="89.86" y="269.57" width="44.93" height="44.93" fill="#0d0d0d"/><polygon points="134.79,269.57 134.79,314.5 89.86,314.5" fill="#a1a1a1"/><rect x="134.79" y="269.57" width="44.93" height="44.93" fill="#373737"/><polygon points="134.79,269.57 179.72,314.5 134.79,314.5" fill="#5c5c5c"/><rect x="89.86" y="314.5" width="44.93" height="44.93" fill="#cccccc"/><polygon points="134.79,314.5 134.79,359.43 89.86,359.43" fill="#212121"/><rect x="134.79" y="314.5" width="44.93" height="44.93" fill="#414141"/><polygon points="134.79,314.5 179.72,314.5 179.72,359.43" fill="#aaaaaa"/><rect x="179.71428571428572" y="269.57142857142856" width="89.85714285714286" height="89.85714285714286" fill="#ffffff"/><rect x="179.71" y="269.57" width="44.93" height="44.93" fill="#595959"/><polygon points="179.71,269.57 224.64000000000001,269.57 179.71,314.5" fill="#d5d5d5"/><rect x="224.64" y="269.57" width="44.93" height="44.93" fill="#575757"/><polygon points="224.64,269.57 269.57,314.5 224.64,314.5" fill="#1a1a1a"/><rect x="179.71" y="314.5" width="44.93" height="44.93" fill="#f5f5f5"/><polygon points="179.71,314.5 224.64000000000001,314.5 179.71,359.43" fill="#414141"/><rect x="224.64" y="314.5" width="44.93" height="44.93" fill="#fefefe"/><polygon points="224.64,314.5 269.57,314.5 269.57,359.43" fill="#c5c5c5"/><rect x="269.57142857142856" y="269.57142857142856" width="89.85714285714286" height="89.85714285714286" fill="#ffffff"/><rect x="269.57" y="269.57" width="44.93" height="44.93" fill="#929292"/><polygon points="314.5,269.57 314.5,314.5 269.57,314.5" fill="#111111"/><rect x="314.5" y="269.57" width="44.93" height="44.93" fill="#4b4b4b"/><polygon points="359.43,269.57 359.43,314.5 314.5,314.5" fill="#373737"/><rect x="269.57" y="314.5" width="44.93" height="44.93" fill="#7f7f7f"/><polygon points="314.5,314.5 314.5,359.43 269.57,359.43" fill="#1a1a1a"/><rect x="314.5" y="314.5" width="44.93" height="44.93" fill="#0c0c0c"/><polygon points="359.43,314.5 359.43,359.43 314.5,359.43" fill="#989898"/><rect x="359.43" y="269.57" width="89.86" height="89.86" fill="#adadad"/><polygon points="359.43,269.57 449.29,269.57 359.43,359.43" fill="#b9b9b9"/><rect x="449.28571428571433" y="269.57142857142856" width="89.85714285714286" height="89.85714285714286" fill="#ffffff"/><rect x="449.29" y="269.57" width="44.93" height="44.93" fill="#d1d1d1"/><polygon points="449.29,269.57 494.22,269.57 494.22,314.5" fill="#c2c2c2"/><rect x="494.21" y="269.57" width="44.93" height="44.93" fill="#050505"/><polygon points="494.21,269.57 539.14,269.57 539.14,314.5" fill="#606060"/><rect x="449.29" y="314.5" width="44.93" height="44.93" fill="#646464"/><polygon points="449.29,314.5 494.22,314.5 494.22,359.43" fill="#5a5a5a"/><rect x="494.21" y="314.5" width="44.93" height="44.93" fill="#d7d7d7"/><polygon points="494.21,314.5 539.14,359.43 494.21,359.43" fill="#ababab"/><rect x="539.14" y="269.57" width="89.86" height="89.86" fill="#757575"/><polygon points="539.14,269.57 629,359.43 539.14,359.43" fill="#5a5a5a"/><rect x="629" y="269.57142857142856" width="89.85714285714286" height="89.85714285714286" fill="#ffffff"/><rect x="629" y="269.57" width="44.93" height="44.93" fill="#f3f3f3"/><polygon points="629,269.57 673.93,269.57 673.93,314.5" fill="#606060"/><rect x="673.93" y="269.57" width="44.93" height="44.93" fill="#bfbfbf"/><polygon points="718.8599999999999,269.57 718.8599999999999,314.5 673.93,314.5" fill="#f9f9f9"/><rect x="629" y="314.5" width="44.93" height="44.93" fill="#3b3b3b"/><polygon points="629,314.5 673.93,314.5 629,359.43" fill="#b7b7b7"/><rect x="673.93" y="314.5" width="44.93" height="44.93" fill="#545454"/><polygon points="673.93,314.5 718.8599999999999,314.5 718.8599999999999,359.43" fill="#6f6f6f"/><rect x="718.8571428571429" y="269.57142857142856" width="89.85714285714286" height="89.85714285714286" fill="#ffffff"/><rect x="718.86" y="269.57" width="44.93" height="44.93" fill="#515151"/><polygon points="763.79,269.57 763.79,314.5 718.86,314.5" fill="#6e6e6e"/><rect x="763.79" y="269.57" width="44.93" height="44.93" fill="#6c6c6c"/><polygon points="763.79,269.57 808.7199999999999,314.5 763.79,314.5" fill="#7c7c7c"/><rect x="718.86" y="314.5" width="44.93" height="44.93" fill="#101010"/><polygon points="718.86,314.5 763.79,359.43 718.86,359.43" fill="#070707"/><rect x="763.79" y="314.5" width="44.93" height="44.93" fill="#bfbfbf"/><polygon points="763.79,314.5 808.7199999999999,314.5 808.7199999999999,359.43" fill="#040404"/><rect x="808.7142857142858" y="269.57142857142856" width="89.85714285714286" height="89.85714285714286" fill="#ffffff"/><rect x="808.71" y="269.57" width="44.93" height="44.93" fill="#070707"/><polygon points="808.71,269.57 853.64,314.5 808.71,314.5" fill="#373737"/><rect x="853.64" y="269.57" width="44.93" height="44.93" fill="#949494"/><polygon points="853.64,269.57 898.5699999999999,269.57 853.64,314.5" fill="#252525"/><rect x="808.71" y="314.5" width="44.93" height="44.93" fill="#c4c4c4"/><polygon points="808.71,314.5 853.64,314.5 808.71,359.43" fill="#2d2d2d"/><rect x="853.64" y="314.5" width="44.93" height="44.93" fill="#f6f6f6"/><polygon points="898.5699999999999,314.5 898.5699999999999,359.43 853.64,359.43" fill="#525252"/><rect x="898.57" y="269.57" width="89.86" height="89.86" fill="#2b2b2b"/><polygon points="898.57,269.57 988.4300000000001,269.57 898.57,359.43" fill="#454545"/><rect x="988.43" y="269.57" width="89.86" height="89.86" fill="#d2d2d2"/><polygon points="988.43,269.57 1078.29,359.43 988.43,359.43" fill="#595959"/><rect x="1078.2857142857142" y="269.57142857142856" width="89.85714285714286" height="89.85714285714286" fill="#ffffff"/><rect x="1078.29" y="269.57" width="44.93" height="44.93" fill="#141414"/><polygon points="1078.29,269.57 1123.22,269.57 1123.22,314.5" fill="#a5a5a5"/><rect x="1123.21" y="269.57" width="44.93" height="44.93" fill="#494949"/><polygon points="1168.14,269.57 1168.14,314.5 1123.21,314.5" fill="#272727"/><rect x="1078.29" y="314.5" width="44.93" height="44.93" fill="#afafaf"/><polygon points="1078.29,314.5 1123.22,314.5 1078.29,359.43" fill="#d5d5d5"/><rect x="1123.21" y="314.5" width="44.93" height="44.93" fill="#d0d0d0"/><polygon points="1168.14,314.5 1168.14,359.43 1123.21,359.43" fill="#dbdbdb"/><rect x="1168.14" y="269.57" width="89.86" height="89.86" fill="#c4c4c4"/><polygon points="1258,269.57 1258,359.43 1168.14,359.43" fill="#c1c1c1"/><rect x="0" y="359.43" width="89.86" height="89.86" fill="#bbbbbb"/><polygon points="0,359.43 89.86,359.43 89.86,449.29" fill="#646464"/><rect x="89.86" y="359.43" width="89.86" height="89.86" fill="#818181"/><polygon points="89.86,359.43 179.72,359.43 179.72,449.29" fill="#dfdfdf"/><rect x="179.71" y="359.43" width="89.86" height="89.86" fill="#505050"/><polygon points="179.71,359.43 269.57,449.29 179.71,449.29" fill="#545454"/><rect x="269.57142857142856" y="359.42857142857144" width="89.85714285714286" height="89.85714285714286" fill="#ffffff"/><rect x="269.57" y="359.43" width="44.93" height="44.93" fill="#9c9c9c"/><polygon points="269.57,359.43 314.5,404.36 269.57,404.36" fill="#a2a2a2"/><rect x="314.5" y="359.43" width="44.93" height="44.93" fill="#030303"/><polygon points="314.5,359.43 359.43,359.43 314.5,404.36" fill="#313131"/><rect x="269.57" y="404.36" width="44.93" height="44.93" fill="#292929"/><polygon points="269.57,404.36 314.5,449.29 269.57,449.29" fill="#989898"/><rect x="314.5" y="404.36" width="44.93" height="44.93" fill="#575757"/><polygon points="314.5,404.36 359.43,449.29 314.5,449.29" fill="#2f2f2f"/><rect x="359.43" y="359.43" width="89.86" height="89.86" fill="#484848"/><polygon points="359.43,359.43 449.29,359.43 449.29,449.29" fill="#545454"/><rect x="449.28571428571433" y="359.42857142857144" width="89.85714285714286" height="89.85714285714286" fill="#ffffff"/><rect x="449.29" y="359.43" width="44.93" height="44.93" fill="#0e0e0e"/><polygon points="449.29,359.43 494.22,404.36 449.29,404.36" fill="#e3e3e3"/><rect x="494.21" y="359.43" width="44.93" height="44.93" fill="#4e4e4e"/><polygon points="494.21,359.43 539.14,359.43 539.14,404.36" fill="#1b1b1b"/><rect x="449.29" y="404.36" width="44.93" height="44.93" fill="#9d9d9d"/><polygon points="449.29,404.36 494.22,404.36 449.29,449.29" fill="#e9e9e9"/><rect x="494.21" y="404.36" width="44.93" height="44.93" fill="#959595"/><polygon points="494.21,404.36 539.14,449.29 494.21,449.29" fill="#757575"/><rect x="539.1428571428571" y="359.42857142857144" width="89.85714285714286" height="89.85714285714286" fill="#ffffff"/><rect x="539.14" y="359.43" width="44.93" height="44.93" fill="#b5b5b5"/><polygon points="539.14,359.43 584.0699999999999,404.36 539.14,404.36" fill="#eaeaea"/><rect x="584.07" y="359.43" width="44.93" height="44.93" fill="#fcfcfc"/><polygon points="584.07,359.43 629,359.43 629,404.36" fill="#4a4a4a"/><rect x="539.14" y="404.36" width="44.93" height="44.93" fill="#9c9c9c"/><polygon points="584.0699999999999,404.36 584.0699999999999,449.29 539.14,449.29" fill="#303030"/><rect x="584.07" y="404.36" width="44.93" height="44.93" fill="#696969"/><polygon points="629,404.36 629,449.29 584.07,449.29" fill="#c1c1c1"/><rect x="629" y="359.42857142857144" width="89.85714285714286" height="89.85714285714286" fill="#ffffff"/><rect x="629" y="359.43" width="44.93" height="44.93" fill="#060606"/><polygon points="629,359.43 673.93,404.36 629,404.36" fill="#9c9c9c"/><rect x="673.93" y="359.43" width="44.93" height="44.93" fill="#838383"/><polygon points="673.93,359.43 718.8599999999999,359.43 673.93,404.36" fill="#9c9c9c"/><rect x="629" y="404.36" width="44.93" height="44.93" fill="#121212"/><polygon points="629,404.36 673.93,404.36 629,449.29" fill="#7d7d7d"/><rect x="673.93" y="404.36" width="44.93" height="44.93" fill="#4a4a4a"/><polygon points="673.93,404.36 718.8599999999999,404.36 718.8599999999999,449.29" fill="#1e1e1e"/><rect x="718.8571428571429" y="359.42857142857144" width="89.85714285714286" height="89.85714285714286" fill="#ffffff"/><rect x="718.86" y="359.43" width="44.93" height="44.93" fill="#5c5c5c"/><polygon points="718.86,359.43 763.79,404.36 718.86,404.36" fill="#d4d4d4"/><rect x="763.79" y="359.43" width="44.93" height="44.93" fill="#c8c8c8"/><polygon points="808.7199999999999,359.43 808.7199999999999,404.36 763.79,404.36" fill="#2f2f2f"/><rect x="718.86" y="404.36" width="44.93" height="44.93" fill="#d7d7d7"/><polygon points="718.86,404.36 763.79,404.36 763.79,449.29" fill="#cccccc"/><rect x="763.79" y="404.36" width="44.93" height="44.93" fill="#bababa"/><polygon points="763.79,404.36 808.7199999999999,404.36 808.7199999999999,449.29" fill="#f2f2f2"/><rect x="808.71" y="359.43" width="89.86" height="89.86" fill="#6c6c6c"/><polygon points="898.57,359.43 898.57,449.29 808.71,449.29" fill="#2a2a2a"/><rect x="898.57" y="359.43" width="89.86" height="89.86" fill="#aaaaaa"/><polygon points="898.57,359.43 988.4300000000001,449.29 898.57,449.29" fill="#1f1f1f"/><rect x="988.4285714285714" y="359.42857142857144" width="89.85714285714286" height="89.85714285714286" fill="#ffffff"/><rect x="988.43" y="359.43" width="44.93" height="44.93" fill="#909090"/><polygon points="988.43,359.43 1033.36,359.43 1033.36,404.36" fill="#505050"/><rect x="1033.36" y="359.43" width="44.93" height="44.93" fill="#bbbbbb"/><polygon points="1078.29,359.43 1078.29,404.36 1033.36,404.36" fill="#323232"/><rect x="988.43" y="404.36" width="44.93" height="44.93" fill="#f4f4f4"/><polygon points="1033.36,404.36 1033.36,449.29 988.43,449.29" fill="#454545"/><rect x="1033.36" y="404.36" width="44.93" height="44.93" fill="#2c2c2c"/><polygon points="1033.36,404.36 1078.29,404.36 1033.36,449.29" fill="#a9a9a9"/><rect x="1078.29" y="359.43" width="89.86" height="89.86" fill="#4b4b4b"/><polygon points="1168.1499999999999,359.43 1168.1499999999999,449.29 1078.29,449.29" fill="#5e5e5e"/><rect x="1168.142857142857" y="359.42857142857144" width="89.85714285714286" height="89.85714285714286" fill="#ffffff"/><rect x="1168.14" y="359.43" width="44.93" height="44.93" fill="#828282"/><polygon points="1168.14,359.43 1213.0700000000002,359.43 1168.14,404.36" fill="#212121"/><rect x="1213.07" y="359.43" width="44.93" height="44.93" fill="#c6c6c6"/><polygon points="1213.07,359.43 1258,359.43 1258,404.36" fill="#f5f5f5"/><rect x="1168.14" y="404.36" width="44.93" height="44.93" fill="#a5a5a5"/><polygon points="1168.14,404.36 1213.0700000000002,449.29 1168.14,449.29" fill="#b6b6b6"/><rect x="1213.07" y="404.36" width="44.93" height="44.93" fill="#e7e7e7"/><polygon points="1213.07,404.36 1258,404.36 1213.07,449.29" fill="#c1c1c1"/><rect x="0" y="449.29" width="89.86" height="89.86" fill="#5c5c5c"/><polygon points="0,449.29 89.86,449.29 0,539.15" fill="#e3e3e3"/><rect x="89.85714285714286" y="449.28571428571433" width="89.85714285714286" height="89.85714285714286" fill="#ffffff"/><rect x="89.86" y="449.29" width="44.93" height="44.93" fill="#a6a6a6"/><polygon points="134.79,449.29 134.79,494.22 89.86,494.22" fill="#595959"/><rect x="134.79" y="449.29" width="44.93" height="44.93" fill="#e9e9e9"/><polygon points="179.72,449.29 179.72,494.22 134.79,494.22" fill="#363636"/><rect x="89.86" y="494.21" width="44.93" height="44.93" fill="#747474"/><polygon points="89.86,494.21 134.79,539.14 89.86,539.14" fill="#121212"/><rect x="134.79" y="494.21" width="44.93" height="44.93" fill="#414141"/><polygon points="134.79,494.21 179.72,494.21 179.72,539.14" fill="#2c2c2c"/><rect x="179.71" y="449.29" width="89.86" height="89.86" fill="#3c3c3c"/><polygon points="179.71,449.29 269.57,449.29 269.57,539.15" fill="#f0f0f0"/><rect x="269.57142857142856" y="449.28571428571433" width="89.85714285714286" height="89.85714285714286" fill="#ffffff"/><rect x="269.57" y="449.29" width="44.93" height="44.93" fill="#0a0a0a"/><polygon points="314.5,449.29 314.5,494.22 269.57,494.22" fill="#999999"/><rect x="314.5" y="449.29" width="44.93" height="44.93" fill="#f1f1f1"/><polygon points="314.5,449.29 359.43,494.22 314.5,494.22" fill="#8b8b8b"/><rect x="269.57" y="494.21" width="44.93" height="44.93" fill="#c3c3c3"/><polygon points="314.5,494.21 314.5,539.14 269.57,539.14" fill="#202020"/><rect x="314.5" y="494.21" width="44.93" height="44.93" fill="#666666"/><polygon points="314.5,494.21 359.43,494.21 359.43,539.14" fill="#888888"/><rect x="359.42857142857144" y="449.28571428571433" width="89.85714285714286" height="89.85714285714286" fill="#ffffff"/><rect x="359.43" y="449.29" width="44.93" height="44.93" fill="#e1e1e1"/><polygon points="359.43,449.29 404.36,494.22 359.43,494.22" fill="#4e4e4e"/><rect x="404.36" y="449.29" width="44.93" height="44.93" fill="#4a4a4a"/><polygon points="404.36,449.29 449.29,449.29 449.29,494.22" fill="#0d0d0d"/><rect x="359.43" y="494.21" width="44.93" height="44.93" fill="#848484"/><polygon points="359.43,494.21 404.36,539.14 359.43,539.14" fill="#868686"/><rect x="404.36" y="494.21" width="44.93" height="44.93" fill="#9b9b9b"/><polygon points="404.36,494.21 449.29,494.21 404.36,539.14" fill="#acacac"/><rect x="449.29" y="449.29" width="89.86" height="89.86" fill="#050505"/><polygon points="449.29,449.29 539.15,449.29 539.15,539.15" fill="#f0f0f0"/><rect x="539.14" y="449.29" width="89.86" height="89.86" fill="#737373"/><polygon points="629,449.29 629,539.15 539.14,539.15" fill="#212121"/><rect x="629" y="449.28571428571433" width="89.85714285714286" height="89.85714285714286" fill="#ffffff"/><rect x="629" y="449.29" width="44.93" height="44.93" fill="#d2d2d2"/><polygon points="629,449.29 673.93,494.22 629,494.22" fill="#484848"/><rect x="673.93" y="449.29" width="44.93" height="44.93" fill="#e7e7e7"/><polygon points="673.93,449.29 718.8599999999999,449.29 718.8599999999999,494.22" fill="#989898"/><rect x="629" y="494.21" width="44.93" height="44.93" fill="#d5d5d5"/><polygon points="629,494.21 673.93,494.21 673.93,539.14" fill="#e2e2e2"/><rect x="673.93" y="494.21" width="44.93" height="44.93" fill="#8d8d8d"/><polygon points="673.93,494.21 718.8599999999999,494.21 718.8599999999999,539.14" fill="#8b8b8b"/><rect x="718.8571428571429" y="449.28571428571433" width="89.85714285714286" height="89.85714285714286" fill="#ffffff"/><rect x="718.86" y="449.29" width="44.93" height="44.93" fill="#595959"/><polygon points="718.86,449.29 763.79,449.29 718.86,494.22" fill="#a6a6a6"/><rect x="763.79" y="449.29" width="44.93" height="44.93" fill="#d6d6d6"/><polygon points="763.79,449.29 808.7199999999999,449.29 763.79,494.22" fill="#797979"/><rect x="718.86" y="494.21" width="44.93" height="44.93" fill="#6b6b6b"/><polygon points="718.86,494.21 763.79,494.21 718.86,539.14" fill="#505050"/><rect x="763.79" y="494.21" width="44.93" height="44.93" fill="#6d6d6d"/><polygon points="763.79,494.21 808.7199999999999,494.21 763.79,539.14" fill="#242424"/><rect x="808.71" y="449.29" width="89.86" height="89.86" fill="#848484"/><polygon points="898.57,449.29 898.57,539.15 808.71,539.15" fill="#686868"/><rect x="898.57" y="449.29" width="89.86" height="89.86" fill="#6d6d6d"/><polygon points="898.57,449.29 988.4300000000001,449.29 988.4300000000001,539.15" fill="#e5e5e5"/><rect x="988.43" y="449.29" width="89.86" height="89.86" fill="#7c7c7c"/><polygon points="988.43,449.29 1078.29,449.29 988.43,539.15" fill="#f2f2f2"/><rect x="1078.2857142857142" y="449.28571428571433" width="89.85714285714286" height="89.85714285714286" fill="#ffffff"/><rect x="1078.29" y="449.29" width="44.93" height="44.93" fill="#e3e3e3"/><polygon points="1123.22,449.29 1123.22,494.22 1078.29,494.22" fill="#9a9a9a"/><rect x="1123.21" y="449.29" width="44.93" height="44.93" fill="#4f4f4f"/><polygon points="1168.14,449.29 1168.14,494.22 1123.21,494.22" fill="#bcbcbc"/><rect x="1078.29" y="494.21" width="44.93" height="44.93" fill="#323232"/><polygon points="1078.29,494.21 1123.22,494.21 1078.29,539.14" fill="#0e0e0e"/><rect x="1123.21" y="494.21" width="44.93" height="44.93" fill="#1e1e1e"/><polygon points="1123.21,494.21 1168.14,494.21 1123.21,539.14" fill="#bfbfbf"/><rect x="1168.14" y="449.29" width="89.86" height="89.86" fill="#1a1a1a"/><polygon points="1168.14,449.29 1258,449.29 1258,539.15" fill="#0c0c0c"/><rect x="0" y="539.1428571428571" width="89.85714285714286" height="89.85714285714286" fill="#ffffff"/><rect x="0" y="539.14" width="44.93" height="44.93" fill="#d1d1d1"/><polygon points="0,539.14 44.93,584.0699999999999 0,584.0699999999999" fill="#787878"/><rect x="44.93" y="539.14" width="44.93" height="44.93" fill="#f6f6f6"/><polygon points="89.86,539.14 89.86,584.0699999999999 44.93,584.0699999999999" fill="#5f5f5f"/><rect x="0" y="584.07" width="44.93" height="44.93" fill="#ebebeb"/><polygon points="0,584.07 44.93,629 0,629" fill="#f2f2f2"/><rect x="44.93" y="584.07" width="44.93" height="44.93" fill="#565656"/><polygon points="89.86,584.07 89.86,629 44.93,629" fill="#818181"/><rect x="89.86" y="539.14" width="89.86" height="89.86" fill="#7f7f7f"/><polygon points="89.86,539.14 179.72,629 89.86,629" fill="#2d2d2d"/><rect x="179.71" y="539.14" width="89.86" height="89.86" fill="#ededed"/><polygon points="269.57,539.14 269.57,629 179.71,629" fill="#8e8e8e"/><rect x="269.57142857142856" y="539.1428571428571" width="89.85714285714286" height="89.85714285714286" fill="#ffffff"/><rect x="269.57" y="539.14" width="44.93" height="44.93" fill="#cbcbcb"/><polygon points="314.5,539.14 314.5,584.0699999999999 269.57,584.0699999999999" fill="#c7c7c7"/><rect x="314.5" y="539.14" width="44.93" height="44.93" fill="#9f9f9f"/><polygon points="314.5,539.14 359.43,539.14 359.43,584.0699999999999" fill="#a6a6a6"/><rect x="269.57" y="584.07" width="44.93" height="44.93" fill="#9f9f9f"/><polygon points="314.5,584.07 314.5,629 269.57,629" fill="#7c7c7c"/><rect x="314.5" y="584.07" width="44.93" height="44.93" fill="#0a0a0a"/><polygon points="359.43,584.07 359.43,629 314.5,629" fill="#424242"/><rect x="359.42857142857144" y="539.1428571428571" width="89.85714285714286" height="89.85714285714286" fill="#ffffff"/><rect x="359.43" y="539.14" width="44.93" height="44.93" fill="#0e0e0e"/><polygon points="359.43,539.14 404.36,539.14 404.36,584.0699999999999" fill="#4c4c4c"/><rect x="404.36" y="539.14" width="44.93" height="44.93" fill="#cecece"/><polygon points="449.29,539.14 449.29,584.0699999999999 404.36,584.0699999999999" fill="#b7b7b7"/><rect x="359.43" y="584.07" width="44.93" height="44.93" fill="#979797"/><polygon points="359.43,584.07 404.36,584.07 359.43,629" fill="#090909"/><rect x="404.36" y="584.07" width="44.93" height="44.93" fill="#909090"/><polygon points="449.29,584.07 449.29,629 404.36,629" fill="#ececec"/><rect x="449.28571428571433" y="539.1428571428571" width="89.85714285714286" height="89.85714285714286" fill="#ffffff"/><rect x="449.29" y="539.14" width="44.93" height="44.93" fill="#989898"/><polygon points="449.29,539.14 494.22,584.0699999999999 449.29,584.0699999999999" fill="#1c1c1c"/><rect x="494.21" y="539.14" width="44.93" height="44.93" fill="#919191"/><polygon points="539.14,539.14 539.14,584.0699999999999 494.21,584.0699999999999" fill="#929292"/><rect x="449.29" y="584.07" width="44.93" height="44.93" fill="#818181"/><polygon points="449.29,584.07 494.22,584.07 494.22,629" fill="#fefefe"/><rect x="494.21" y="584.07" width="44.93" height="44.93" fill="#262626"/><polygon points="494.21,584.07 539.14,584.07 494.21,629" fill="#6a6a6a"/><rect x="539.1428571428571" y="539.1428571428571" width="89.85714285714286" height="89.85714285714286" fill="#ffffff"/><rect x="539.14" y="539.14" width="44.93" height="44.93" fill="#a7a7a7"/><polygon points="584.0699999999999,539.14 584.0699999999999,584.0699999999999 539.14,584.0699999999999" fill="#d5d5d5"/><rect x="584.07" y="539.14" width="44.93" height="44.93" fill="#b1b1b1"/><polygon points="584.07,539.14 629,539.14 629,584.0699999999999" fill="#bfbfbf"/><rect x="539.14" y="584.07" width="44.93" height="44.93" fill="#bbbbbb"/><polygon points="539.14,584.07 584.0699999999999,584.07 584.0699999999999,629" fill="#565656"/><rect x="584.07" y="584.07" width="44.93" height="44.93" fill="#f4f4f4"/><polygon points="584.07,584.07 629,584.07 629,629" fill="#dedede"/><rect x="629" y="539.14" width="89.86" height="89.86" fill="#2c2c2c"/><polygon points="629,539.14 718.86,539.14 718.86,629" fill="#1e1e1e"/><rect x="718.8571428571429" y="539.1428571428571" width="89.85714285714286" height="89.85714285714286" fill="#ffffff"/><rect x="718.86" y="539.14" width="44.93" height="44.93" fill="#636363"/><polygon points="763.79,539.14 763.79,584.0699999999999 718.86,584.0699999999999" fill="#adadad"/><rect x="763.79" y="539.14" width="44.93" height="44.93" fill="#d9d9d9"/><polygon points="763.79,539.14 808.7199999999999,539.14 808.7199999999999,584.0699999999999" fill="#383838"/><rect x="718.86" y="584.07" width="44.93" height="44.93" fill="#a5a5a5"/><polygon points="718.86,584.07 763.79,629 718.86,629" fill="#d7d7d7"/><rect x="763.79" y="584.07" width="44.93" height="44.93" fill="#d2d2d2"/><polygon points="763.79,584.07 808.7199999999999,584.07 763.79,629" fill="#404040"/><rect x="808.71" y="539.14" width="89.86" height="89.86" fill="#858585"/><polygon points="808.71,539.14 898.57,629 808.71,629" fill="#141414"/><rect x="898.57" y="539.14" width="89.86" height="89.86" fill="#d7d7d7"/><polygon points="898.57,539.14 988.4300000000001,539.14 988.4300000000001,629" fill="#ececec"/><rect x="988.4285714285714" y="539.1428571428571" width="89.85714285714286" height="89.85714285714286" fill="#ffffff"/><rect x="988.43" y="539.14" width="44.93" height="44.93" fill="#474747"/><polygon points="988.43,539.14 1033.36,584.0699999999999 988.43,584.0699999999999" fill="#d2d2d2"/><rect x="1033.36" y="539.14" width="44.93" height="44.93" fill="#f0f0f0"/><polygon points="1033.36,539.14 1078.29,539.14 1033.36,584.0699999999999" fill="#5c5c5c"/><rect x="988.43" y="584.07" width="44.93" height="44.93" fill="#a9a9a9"/><polygon points="988.43,584.07 1033.36,629 988.43,629" fill="#dbdbdb"/><rect x="1033.36" y="584.07" width="44.93" height="44.93" fill="#cecece"/><polygon points="1033.36,584.07 1078.29,584.07 1078.29,629" fill="#141414"/><rect x="1078.2857142857142" y="539.1428571428571" width="89.85714285714286" height="89.85714285714286" fill="#ffffff"/><rect x="1078.29" y="539.14" width="44.93" height="44.93" fill="#cdcdcd"/><polygon points="1078.29,539.14 1123.22,539.14 1078.29,584.0699999999999" fill="#272727"/><rect x="1123.21" y="539.14" width="44.93" height="44.93" fill="#999999"/><polygon points="1123.21,539.14 1168.14,539.14 1123.21,584.0699999999999" fill="#888888"/><rect x="1078.29" y="584.07" width="44.93" height="44.93" fill="#848484"/><polygon points="1078.29,584.07 1123.22,584.07 1123.22,629" fill="#121212"/><rect x="1123.21" y="584.07" width="44.93" height="44.93" fill="#7e7e7e"/><polygon points="1123.21,584.07 1168.14,584.07 1123.21,629" fill="#171717"/><rect x="1168.142857142857" y="539.1428571428571" width="89.85714285714286" height="89.85714285714286" fill="#ffffff"/><rect x="1168.14" y="539.14" width="44.93" height="44.93" fill="#8d8d8d"/><polygon points="1213.0700000000002,539.14 1213.0700000000002,584.0699999999999 1168.14,584.0699999999999" fill="#393939"/><rect x="1213.07" y="539.14" width="44.93" height="44.93" fill="#464646"/><polygon points="1213.07,539.14 1258,584.0699999999999 1213.07,584.0699999999999" fill="#b2b2b2"/><rect x="1168.14" y="584.07" width="44.93" height="44.93" fill="#4e4e4e"/><polygon points="1168.14,584.07 1213.0700000000002,584.07 1168.14,629" fill="#9a9a9a"/><rect x="1213.07" y="584.07" width="44.93" height="44.93" fill="#959595"/><polygon points="1213.07,584.07 1258,584.07 1213.07,629" fill="#c2c2c2"/><rect x="0" y="629" width="89.85714285714286" height="89.85714285714286" fill="#ffffff"/><rect x="0" y="629" width="44.93" height="44.93" fill="#9b9b9b"/><polygon points="0,629 44.93,629 44.93,673.93" fill="#b4b4b4"/><rect x="44.93" y="629" width="44.93" height="44.93" fill="#ababab"/><polygon points="89.86,629 89.86,673.93 44.93,673.93" fill="#bfbfbf"/><rect x="0" y="673.93" width="44.93" height="44.93" fill="#181818"/><polygon points="0,673.93 44.93,718.8599999999999 0,718.8599999999999" fill="#616161"/><rect x="44.93" y="673.93" width="44.93" height="44.93" fill="#d0d0d0"/><polygon points="44.93,673.93 89.86,673.93 89.86,718.8599999999999" fill="#5e5e5e"/><rect x="89.85714285714286" y="629" width="89.85714285714286" height="89.85714285714286" fill="#ffffff"/><rect x="89.86" y="629" width="44.93" height="44.93" fill="#8a8a8a"/><polygon points="89.86,629 134.79,673.93 89.86,673.93" fill="#d3d3d3"/><rect x="134.79" y="629" width="44.93" height="44.93" fill="#333333"/><polygon points="134.79,629 179.72,629 179.72,673.93" fill="#313131"/><rect x="89.86" y="673.93" width="44.93" height="44.93" fill="#7c7c7c"/><polygon points="89.86,673.93 134.79,718.8599999999999 89.86,718.8599999999999" fill="#dddddd"/><rect x="134.79" y="673.93" width="44.93" height="44.93" fill="#eeeeee"/><polygon points="134.79,673.93 179.72,673.93 179.72,718.8599999999999" fill="#606060"/><rect x="179.71428571428572" y="629" width="89.85714285714286" height="89.85714285714286" fill="#ffffff"/><rect x="179.71" y="629" width="44.93" height="44.93" fill="#777777"/><polygon points="224.64000000000001,629 224.64000000000001,673.93 179.71,673.93" fill="#c5c5c5"/><rect x="224.64" y="629" width="44.93" height="44.93" fill="#7c7c7c"/><polygon points="224.64,629 269.57,629 269.57,673.93" fill="#cecece"/><rect x="179.71" y="673.93" width="44.93" height="44.93" fill="#121212"/><polygon points="179.71,673.93 224.64000000000001,673.93 179.71,718.8599999999999" fill="#bfbfbf"/><rect x="224.64" y="673.93" width="44.93" height="44.93" fill="#252525"/><polygon points="224.64,673.93 269.57,673.93 224.64,718.8599999999999" fill="#737373"/><rect x="269.57" y="629" width="89.86" height="89.86" fill="#f8f8f8"/><polygon points="359.43,629 359.43,718.86 269.57,718.86" fill="#151515"/><rect x="359.43" y="629" width="89.86" height="89.86" fill="#a2a2a2"/><polygon points="359.43,629 449.29,629 449.29,718.86" fill="#303030"/><rect x="449.28571428571433" y="629" width="89.85714285714286" height="89.85714285714286" fill="#ffffff"/><rect x="449.29" y="629" width="44.93" height="44.93" fill="#f4f4f4"/><polygon points="449.29,629 494.22,629 494.22,673.93" fill="#989898"/><rect x="494.21" y="629" width="44.93" height="44.93" fill="#080808"/><polygon points="494.21,629 539.14,629 494.21,673.93" fill="#eaeaea"/><rect x="449.29" y="673.93" width="44.93" height="44.93" fill="#b7b7b7"/><polygon points="494.22,673.93 494.22,718.8599999999999 449.29,718.8599999999999" fill="#8a8a8a"/><rect x="494.21" y="673.93" width="44.93" height="44.93" fill="#010101"/><polygon points="494.21,673.93 539.14,673.93 494.21,718.8599999999999" fill="#515151"/><rect x="539.14" y="629" width="89.86" height="89.86" fill="#676767"/><polygon points="629,629 629,718.86 539.14,718.86" fill="#ebebeb"/><rect x="629" y="629" width="89.86" height="89.86" fill="#6e6e6e"/><polygon points="629,629 718.86,718.86 629,718.86" fill="#e9e9e9"/><rect x="718.86" y="629" width="89.86" height="89.86" fill="#0d0d0d"/><polygon points="808.72,629 808.72,718.86 718.86,718.86" fill="#070707"/><rect x="808.7142857142858" y="629" width="89.85714285714286" height="89.85714285714286" fill="#ffffff"/><rect x="808.71" y="629" width="44.93" height="44.93" fill="#979797"/><polygon points="808.71,629 853.64,629 808.71,673.93" fill="#f2f2f2"/><rect x="853.64" y="629" width="44.93" height="44.93" fill="#d7d7d7"/><polygon points="853.64,629 898.5699999999999,629 898.5699999999999,673.93" fill="#a3a3a3"/><rect x="808.71" y="673.93" width="44.93" height="44.93" fill="#d1d1d1"/><polygon points="808.71,673.93 853.64,673.93 808.71,718.8599999999999" fill="#202020"/><rect x="853.64" y="673.93" width="44.93" height="44.93" fill="#606060"/><polygon points="853.64,673.93 898.5699999999999,673.93 898.5699999999999,718.8599999999999" fill="#646464"/><rect x="898.5714285714287" y="629" width="89.85714285714286" height="89.85714285714286" fill="#ffffff"/><rect x="898.57" y="629" width="44.93" height="44.93" fill="#3b3b3b"/><polygon points="943.5,629 943.5,673.93 898.57,673.93" fill="#adadad"/><rect x="943.5" y="629" width="44.93" height="44.93" fill="#e8e8e8"/><polygon points="943.5,629 988.43,673.93 943.5,673.93" fill="#7d7d7d"/><rect x="898.57" y="673.93" width="44.93" height="44.93" fill="#9a9a9a"/><polygon points="943.5,673.93 943.5,718.8599999999999 898.57,718.8599999999999" fill="#2e2e2e"/><rect x="943.5" y="673.93" width="44.93" height="44.93" fill="#bdbdbd"/><polygon points="988.43,673.93 988.43,718.8599999999999 943.5,718.8599999999999" fill="#aeaeae"/><rect x="988.4285714285714" y="629" width="89.85714285714286" height="89.85714285714286" fill="#ffffff"/><rect x="988.43" y="629" width="44.93" height="44.93" fill="#787878"/><polygon points="988.43,629 1033.36,673.93 988.43,673.93" fill="#484848"/><rect x="1033.36" y="629" width="44.93" height="44.93" fill="#212121"/><polygon points="1078.29,629 1078.29,673.93 1033.36,673.93" fill="#616161"/><rect x="988.43" y="673.93" width="44.93" height="44.93" fill="#2f2f2f"/><polygon points="988.43,673.93 1033.36,673.93 988.43,718.8599999999999" fill="#545454"/><rect x="1033.36" y="673.93" width="44.93" height="44.93" fill="#858585"/><polygon points="1078.29,673.93 1078.29,718.8599999999999 1033.36,718.8599999999999" fill="#a5a5a5"/><rect x="1078.29" y="629" width="89.86" height="89.86" fill="#919191"/><polygon points="1078.29,629 1168.1499999999999,629 1168.1499999999999,718.86" fill="#1d1d1d"/><rect x="1168.142857142857" y="629" width="89.85714285714286" height="89.85714285714286" fill="#ffffff"/><rect x="1168.14" y="629" width="44.93" height="44.93" fill="#616161"/><polygon points="1168.14,629 1213.0700000000002,673.93 1168.14,673.93" fill="#ededed"/><rect x="1213.07" y="629" width="44.93" height="44.93" fill="#f3f3f3"/><polygon points="1213.07,629 1258,673.93 1213.07,673.93" fill="#464646"/><rect x="1168.14" y="673.93" width="44.93" height="44.93" fill="#4f4f4f"/><polygon points="1168.14,673.93 1213.0700000000002,718.8599999999999 1168.14,718.8599999999999" fill="#303030"/><rect x="1213.07" y="673.93" width="44.93" height="44.93" fill="#2f2f2f"/><polygon points="1213.07,673.93 1258,673.93 1213.07,718.8599999999999" fill="#363636"/></g></svg>